/* XPM */
static char * blueSpikeFade_xpm[] = {
"64 64 2 1",
" 	c None",
".	c #2295F3",
"                                                                ",
"                                                                ",
"                                                                ",
"                                                                ",
"                                                                ",
"                                                                ",
"                                                                ",
"                                                                ",
"                                                                ",
"                                                                ",
"                                                                ",
"                                                                ",
"                                                                ",
"                                                                ",
"                                                                ",
"                                                                ",
"                                                                ",
"                                                                ",
"                                                                ",
"                                                                ",
"                                                                ",
"                                                                ",
"                                                                ",
"                                                                ",
"                                                                ",
"                                                                ",
"                                                                ",
"                                                                ",
"                                                                ",
"                                                                ",
"                                                                ",
"                                                                ",
"                                                                ",
"                              ....                              ",
"                             . .. .                             ",
"                            . .... .                            ",
"                           ........                             ",
"                          . ........                            ",
"                         . ..........                           ",
"                        . ............                          ",
"                       . ..............                         ",
"                      . ................                        ",
"                     . ..................                       ",
"                    ...................... .                    ",
"                   ........................ .                   ",
"                  .......................... .                  ",
"                 . .......................... .                 ",
"                . ............................ .                ",
"               . .............................. .               ",
"              . ................................ .              ",
"             . .................................. .             ",
"            . .................................... .            ",
"           . ...................................... .           ",
"          . ........................................            ",
"           ..........................................           ",
"          ............................................          ",
"         ..............................................         ",
"        ................................................ .      ",
"       .................................................. .     ",
"    . .................................................... .    ",
"     ...................................................... .   ",
"    ........................................................ .  ",
"   ..........................................................   ",
"  ............................................................  "};
