/* XPM */
static char * blueSpike_xpm[] = {
"64 64 5 1",
" 	c None",
".	c #FFFFFF",
"+	c #000000",
"@	c #3F51B5",
"#	c #2196F3",
"................................................................",
"................................................................",
"................................................................",
"................................................................",
"................................................................",
"................................................................",
"................................................................",
"................................................................",
"................................................................",
"................................................................",
"................................................................",
"................................................................",
"................................................................",
"................................................................",
"................................................................",
"................................................................",
"................................................................",
"................................................................",
"................................................................",
"................................................................",
"................................................................",
"................................................................",
"................................................................",
"................................................................",
"................................................................",
"................................................................",
"................................................................",
"................................................................",
"................................................................",
"................................................................",
"................................................................",
"................................................................",
"...............................++...............................",
"..............................++++..............................",
".............................+@++@+.............................",
"............................+@++++@+............................",
"...........................+@@++++@@+...........................",
"..........................+@@+#++#+@@+..........................",
".........................+@@@+#++#+@@@+.........................",
"........................+@@@+##++##+@@@+........................",
".......................+@@@@+##++##+@@@@+.......................",
"......................+@@@@+###++###+@@@@+......................",
".....................+@@@@@+###++###+@@@@@+.....................",
"....................+@@@@@+####++####+@@@@@+....................",
"...................+@@@@@@+####++####+@@@@@@+...................",
"..................+@@@@@@+#####++#####+@@@@@@+..................",
".................+@@@@@@@+#####++#####+@@@@@@@+.................",
"................+@@@@@@@+######++######+@@@@@@@+................",
"...............+@@@@@@@@+######++######+@@@@@@@@+...............",
"..............+@@@@@@@@+#######++#######+@@@@@@@@+..............",
".............+@@@@@@@@@+#######++#######+@@@@@@@@@+.............",
"............+@@@@@@@@@+########++########+@@@@@@@@@+............",
"...........+@@@@@@@@@@+########++########+@@@@@@@@@@+...........",
"..........+@@@@@@@@@@+#########++#########+@@@@@@@@@@+..........",
".........+@@@@@@@@@@@+#########++#########+@@@@@@@@@@@+.........",
"........+@@@@@@@@@@@+##########++##########+@@@@@@@@@@@+........",
".......+@@@@@@@@@@@@+##########++##########+@@@@@@@@@@@@+.......",
"......+@@@@@@@@@@@@+###########++###########+@@@@@@@@@@@@+......",
".....+@@@@@@@@@@@@@+###########++###########+@@@@@@@@@@@@@+.....",
"....+@@@@@@@@@@@@@+############++############+@@@@@@@@@@@@@+....",
"...+@@@@@@@@@@@@@@+############++############+@@@@@@@@@@@@@@+...",
"..+@@@@@@@@@@@@@@+#############++#############+@@@@@@@@@@@@@@+..",
".+@@@@@@@@@@@@@@@+#############++#############+@@@@@@@@@@@@@@@+.",
"++++++++++++++++++++++++++++++++++++++++++++++++++++++++++++++++"};
