/* XPM */
static char * Blue_Cube_xpm[] = {
"64 64 3 1",
" 	c None",
".	c #3F51B5",
"+	c #2196F3",
"................................................................",
"................................................................",
"................................................................",
"................................................................",
"......++++++++++++++++++++++++++++++++++++++++++++++++++++......",
".......++++++++++++++++++++++++++++++++++++++++++++++++++.......",
"....+...++++++++++++++++++++++++++++++++++++++++++++++++...+....",
"....++...++++++++++++++++++++++++++++++++++++++++++++++...++....",
"....+++...++++++++++++++++++++++++++++++++++++++++++++...+++....",
"....++++................................................++++....",
"....+++++..............................................+++++....",
"....+++++..............................................+++++....",
"....+++++.....++++++++++++++++++++++++++++++++++++.....+++++....",
"....+++++......++++++++++++++++++++++++++++++++++......+++++....",
"....+++++...+...++++++++++++++++++++++++++++++++...+...+++++....",
"....+++++...++...++++++++++++++++++++++++++++++...++...+++++....",
"....+++++...+++...++++++++++++++++++++++++++++...+++...+++++....",
"....+++++...++++...++++++++++++++++++++++++++...++++...+++++....",
"....+++++...+++++...++++++++++++++++++++++++...+++++...+++++....",
"....+++++...++++++...++++++++++++++++++++++...++++++...+++++....",
"....+++++...+++++++...++++++++++++++++++++...+++++++...+++++....",
"....+++++...++++++++...++++++++++++++++++...++++++++...+++++....",
"....+++++...+++++++++...++++++++++++++++...+++++++++...+++++....",
"....+++++...++++++++++...++++++++++++++...++++++++++...+++++....",
"....+++++...+++++++++++...++++++++++++...+++++++++++...+++++....",
"....+++++...++++++++++++...++++++++++...++++++++++++...+++++....",
"....+++++...+++++++++++++...++++++++...+++++++++++++...+++++....",
"....+++++...++++++++++++++...++++++...++++++++++++++...+++++....",
"....+++++...+++++++++++++++...++++...+++++++++++++++...+++++....",
"....+++++...++++++++++++++++...++...++++++++++++++++...+++++....",
"....+++++...+++++++++++++++++......+++++++++++++++++...+++++....",
"....+++++...++++++++++++++++++....++++++++++++++++++...+++++....",
"....+++++...++++++++++++++++++....++++++++++++++++++...+++++....",
"....+++++...+++++++++++++++++......+++++++++++++++++...+++++....",
"....+++++...++++++++++++++++...++...++++++++++++++++...+++++....",
"....+++++...+++++++++++++++...++++...+++++++++++++++...+++++....",
"....+++++...++++++++++++++...++++++...++++++++++++++...+++++....",
"....+++++...+++++++++++++...++++++++...+++++++++++++...+++++....",
"....+++++...++++++++++++...++++++++++...++++++++++++...+++++....",
"....+++++...+++++++++++...++++++++++++...+++++++++++...+++++....",
"....+++++...++++++++++...++++++++++++++...++++++++++...+++++....",
"....+++++...+++++++++...++++++++++++++++...+++++++++...+++++....",
"....+++++...++++++++...++++++++++++++++++...++++++++...+++++....",
"....+++++...+++++++...++++++++++++++++++++...+++++++...+++++....",
"....+++++...++++++...++++++++++++++++++++++...++++++...+++++....",
"....+++++...+++++...++++++++++++++++++++++++...+++++...+++++....",
"....+++++...++++...++++++++++++++++++++++++++...++++...+++++....",
"....+++++...+++...++++++++++++++++++++++++++++...+++...+++++....",
"....+++++...++...++++++++++++++++++++++++++++++...++...+++++....",
"....+++++...+...++++++++++++++++++++++++++++++++...+...+++++....",
"....+++++......++++++++++++++++++++++++++++++++++......+++++....",
"....+++++.....++++++++++++++++++++++++++++++++++++.....+++++....",
"....+++++..............................................+++++....",
"....+++++..............................................+++++....",
"....++++................................................++++....",
"....+++...++++++++++++++++++++++++++++++++++++++++++++...+++....",
"....++...++++++++++++++++++++++++++++++++++++++++++++++...++....",
"....+...++++++++++++++++++++++++++++++++++++++++++++++++...+....",
".......++++++++++++++++++++++++++++++++++++++++++++++++++.......",
"......++++++++++++++++++++++++++++++++++++++++++++++++++++......",
"................................................................",
"................................................................",
"................................................................",
"................................................................"};
