/* XPM */
static char * cubeText_xpm[] = {
"40 40 2 1",
" 	c #285B11",
".	c #51FF00",
"                                        ",
"                                        ",
"    ................................    ",
"    ................................    ",
"  ..  ............................  .   ",
"  ..  ............................  .   ",
"  ....                            ...   ",
"  ....   ......................   ...   ",
"  ....   ......................   ...   ",
"  .... ..  ..................  .  ...   ",
"  .... ..  ..................  .  ...   ",
"  .... .... ...............  ...  ...   ",
"  .... .....  ............  ....  ...   ",
"  .... .....  ............ .....  ...   ",
"  .... .......  ........  ......  ...   ",
"  .... .......  ........  ......  ...   ",
"  .... ......... .....  ........  ...   ",
"  .... ..........  ..  .........  ...   ",
"  .... ..........  .. ..........  ...   ",
"  .... ............  ...........  ...   ",
"  .... ............  ...........  ...   ",
"  .... ..........  .. ..........  ...   ",
"  .... .........  ....  ........  ...   ",
"  .... ......... .....  ........  ...   ",
"  .... .......  ........  ......  ...   ",
"  .... .......  ........  ......  ...   ",
"  .... .....  ............ .....  ...   ",
"  .... ....  ..............  ...  ...   ",
"  .... .... ...............  ...  ...   ",
"  .... ..  ..................  .  ...   ",
"  .... ..  ..................  .  ...   ",
"  ....   ......................   ...   ",
"  ....                            ...   ",
"  ....                            ...   ",
"  ..  ............................  .   ",
"  ..  ............................  .   ",
"    ................................    ",
"                                        ",
"                                        ",
"                                        "};
