/* XPM */
static char * Red_Jump_xpm[] = {
"64 64 3 1",
" 	c #B71C1C",
".	c #600F0F",
"+	c #E53935",
"                                                                ",
"                                                                ",
"                               ..                               ",
"                              ....                              ",
"      ++++++++++++++++++++++++....++++++++++++++++++++++++      ",
"       ++++++++++++++++++++++......++++++++++++++++++++++       ",
"    +   ++++++++++++++++++++........++++++++++++++++++++   +    ",
"    ++   +++++++++++++++++++........+++++++++++++++++++   ++    ",
"    +++   +++++++++++++++++..........+++++++++++++++++   +++    ",
"    ++++                   ...........                  ++++    ",
"    +++++                 ............                 +++++    ",
"    +++++                ..............                +++++    ",
"    +++++     +++++++++++..............+++++++++++     +++++    ",
"    +++++      +++++++++................+++++++++      +++++    ",
"    +++++   +   +++++++..................+++++++   +   +++++    ",
"    +++++   ++   ++++++..................++++++   ++   +++++    ",
"    +++++   +++   ++++....................++++   +++   +++++    ",
"    +++++   ++++   ++......................++   ++++   +++++    ",
"    +++++   +++++   +......................+   +++++   +++++    ",
"    +++++   ++++++  ........................  ++++++   +++++    ",
"    +++++   +++++++ ........................ +++++++   +++++    ",
"    +++++   ++++++++   ++++..........++++   ++++++++   +++++    ",
"    +++++   +++++++++   +++..........+++   +++++++++   +++++    ",
"    +++++   ++++++++++   ++..........++   ++++++++++   +++++    ",
"    +++++   +++++++++++   +..........+   +++++++++++   +++++    ",
"    +++++   ++++++++++++   ..........   ++++++++++++   +++++    ",
"    +++++   +++++++++++++  ..........  +++++++++++++   +++++    ",
"    +++++   ++++++++++++++ .......... ++++++++++++++   +++++    ",
"    +++++   +++++++++++++++..........+++++++++++++++   +++++    ",
"    +++++   +++++++++++++++..........+++++++++++++++   +++++    ",
"    +++++   +++++++++++++++..........+++++++++++++++   +++++    ",
"    +++++   +++++++++++++++..........+++++++++++++++   +++++    ",
"    +++++   +++++++++++++++..........+++++++++++++++   +++++    ",
"    +++++   +++++++++++++++..........+++++++++++++++   +++++    ",
"    +++++   +++++++++++++++..........+++++++++++++++   +++++    ",
"    +++++   +++++++++++++++..........+++++++++++++++   +++++    ",
"    +++++   ++++++++++++++ .......... ++++++++++++++   +++++    ",
"    +++++   +++++++++++++  ..........  +++++++++++++   +++++    ",
"    +++++   ++++++++++++   ..........   ++++++++++++   +++++    ",
"    +++++   +++++++++++   +..........+   +++++++++++   +++++    ",
"    +++++   ++++++++++   ++..........++   ++++++++++   +++++    ",
"    +++++   +++++++++   +++..........+++   +++++++++   +++++    ",
"    +++++   ++++++++   ++++..........++++   ++++++++   +++++    ",
"    +++++   +++++++   +++++..........+++++   +++++++   +++++    ",
"    +++++   ++++++   ++++++..........++++++   ++++++   +++++    ",
"    +++++   +++++   +++++++..........+++++++   +++++   +++++    ",
"    +++++   ++++   ++++++++..........++++++++   ++++   +++++    ",
"    +++++   +++   +++++++++..........+++++++++   +++   +++++    ",
"    +++++   ++   ++++++++++..........++++++++++   ++   +++++    ",
"    +++++   +   +++++++++++..........+++++++++++   +   +++++    ",
"    +++++      ++++++++++++..........++++++++++++      +++++    ",
"    +++++     +++++++++++++..........+++++++++++++     +++++    ",
"    +++++                  ..........                  +++++    ",
"    +++++                  ..........                  +++++    ",
"    ++++                   ..........                   ++++    ",
"    +++   +++++++++++++++++..........+++++++++++++++++   +++    ",
"    ++   ++++++++++++++++++..........++++++++++++++++++   ++    ",
"    +   +++++++++++++++++++..........+++++++++++++++++++   +    ",
"       ++++++++++++++++++++..........++++++++++++++++++++       ",
"      ++++++++++++++++++++++........++++++++++++++++++++++      ",
"                             ......                             ",
"                                                                ",
"                                                                ",
"                                                                "};
