/* XPM */
static char * redSpikeFade_xpm[] = {
"64 64 2 1",
" 	c None",
".	c #F34436",
"                                                                ",
"                                                                ",
"                                                                ",
"                                                                ",
"                                                                ",
"                                                                ",
"                                                                ",
"                                                                ",
"                                                                ",
"                                                                ",
"                                                                ",
"                                                                ",
"                                                                ",
"                                                                ",
"                                                                ",
"                                                                ",
"                                                                ",
"                                                                ",
"                                                                ",
"                                                                ",
"                                                                ",
"                                                                ",
"                                                                ",
"                                                                ",
"                                                                ",
"                                                                ",
"                                                                ",
"                                                                ",
"                                                                ",
"                                                                ",
"                                                                ",
"                                                                ",
"                                                                ",
"                              ....                              ",
"                             . .. .                             ",
"                            . .... .                            ",
"                           . ...... .                           ",
"                          . ........ .                          ",
"                         . .......... .                         ",
"                        . ............ .                        ",
"                       . .............. .                       ",
"                      . ................ .                      ",
"                     . .................. .                     ",
"                    . .................... .                    ",
"                   . ...................... .                   ",
"                  . ........................ .                  ",
"                 . ..........................                   ",
"                . ............................ .                ",
"               . .............................. .               ",
"              . ................................ .              ",
"             . .................................. .             ",
"            . .................................... .            ",
"           . ...................................... .           ",
"          . ........................................ .          ",
"         . .......................................... .         ",
"        . ............................................ .        ",
"       . .............................................. .       ",
"      . ................................................ .      ",
"     . .................................................. .     ",
"    . .................................................... .    ",
"   . ......................................................     ",
"    ........................................................    ",
"   ..........................................................   ",
"  ............................................................  "};
